<svg xmlns="http://www.w3.org/2000/svg" fill="none" viewBox="0 0 48 48">
  <path d="M4.8 34c0-10.605 8.595-19.2 19.2-19.2 10.605 0 19.2 8.595 19.2 19.2H48c0-13.255-10.745-24-24-24S0 20.745 0 34h4.8z" fill="url(#oOLOg4AUMu0-a)"/>
  <path d="M4.8 34c0-10.605 8.595-19.2 19.2-19.2 10.605 0 19.2 8.595 19.2 19.2H48c0-13.255-10.745-24-24-24S0 20.745 0 34h4.8z" fill="url(#oOLOg4AUMu0-b)" fill-opacity=".6"/>
  <path d="M36 34c0-6.628-5.372-12-12-12s-12 5.372-12 12H7.2c0-9.277 7.522-16.8 16.8-16.8S40.8 24.723 40.8 34H36z" fill="url(#oOLOg4AUMu0-c)"/>
  <path d="M36 34c0-6.628-5.372-12-12-12s-12 5.372-12 12H7.2c0-9.277 7.522-16.8 16.8-16.8S40.8 24.723 40.8 34H36z" fill="url(#oOLOg4AUMu0-d)" fill-opacity=".6"/>
  <path d="M19.2 34a4.801 4.801 0 019.6 0h4.8a9.6 9.6 0 00-9.6-9.6 9.6 9.6 0 00-9.6 9.6h4.8z" fill="url(#oOLOg4AUMu0-e)"/>
  <path d="M19.2 34a4.801 4.801 0 019.6 0h4.8a9.6 9.6 0 00-9.6-9.6 9.6 9.6 0 00-9.6 9.6h4.8z" fill="url(#oOLOg4AUMu0-f)" fill-opacity=".6"/>
  <defs>
    <linearGradient id="oOLOg4AUMu0-a" x1="0" y1="34" x2="48" y2="34" gradientUnits="userSpaceOnUse">
      <stop offset=".219" stop-color="#FF2991"/>
      <stop offset=".792" stop-color="#9429FF"/>
    </linearGradient>
    <linearGradient id="oOLOg4AUMu0-b" x1="24" y1="46.013" x2="24" y2="15" gradientUnits="userSpaceOnUse">
      <stop stop-color="#fff"/>
      <stop offset=".22" stop-color="#fff" stop-opacity=".76"/>
      <stop offset=".6" stop-color="#fff" stop-opacity=".36"/>
      <stop offset=".87" stop-color="#fff" stop-opacity=".1"/>
      <stop offset="1" stop-color="#fff" stop-opacity="0"/>
    </linearGradient>
    <linearGradient id="oOLOg4AUMu0-c" x1="0" y1="34" x2="48" y2="34" gradientUnits="userSpaceOnUse">
      <stop offset=".219" stop-color="#FF2991"/>
      <stop offset=".792" stop-color="#9429FF"/>
    </linearGradient>
    <linearGradient id="oOLOg4AUMu0-d" x1="24" y1="46.013" x2="24" y2="15" gradientUnits="userSpaceOnUse">
      <stop stop-color="#fff"/>
      <stop offset=".22" stop-color="#fff" stop-opacity=".76"/>
      <stop offset=".6" stop-color="#fff" stop-opacity=".36"/>
      <stop offset=".87" stop-color="#fff" stop-opacity=".1"/>
      <stop offset="1" stop-color="#fff" stop-opacity="0"/>
    </linearGradient>
    <linearGradient id="oOLOg4AUMu0-e" x1="0" y1="34" x2="48" y2="34" gradientUnits="userSpaceOnUse">
      <stop offset=".219" stop-color="#FF2991"/>
      <stop offset=".792" stop-color="#9429FF"/>
    </linearGradient>
    <linearGradient id="oOLOg4AUMu0-f" x1="24" y1="46.013" x2="24" y2="15" gradientUnits="userSpaceOnUse">
      <stop stop-color="#fff"/>
      <stop offset=".22" stop-color="#fff" stop-opacity=".76"/>
      <stop offset=".6" stop-color="#fff" stop-opacity=".36"/>
      <stop offset=".87" stop-color="#fff" stop-opacity=".1"/>
      <stop offset="1" stop-color="#fff" stop-opacity="0"/>
    </linearGradient>
  </defs>
</svg>
